<svg xmlns="http://www.w3.org/2000/svg" width="1844" height="1732" viewBox="0 0 1844 1732" version="1.1"><path d="M 872.485 41.016 C 870.866 42.805, 869.384 43, 857.379 43 L 844.069 43 834.784 47.643 C 821.554 54.260, 814.578 61.293, 807.951 74.694 L 802.862 84.985 803.181 100.742 L 803.500 116.500 808.500 126.365 C 814.474 138.150, 821.827 145.650, 832.554 150.899 C 836.374 152.768, 839.787 154.738, 840.138 155.277 C 840.512 155.851, 851.066 156.453, 865.638 156.731 C 890.252 157.201, 890.525 157.230, 892.990 159.615 L 895.479 162.025 892.673 164.436 C 891.130 165.762, 887.985 167.157, 885.684 167.536 C 883.383 167.916, 880.869 168.738, 880.098 169.363 C 879.123 170.154, 865.706 170.652, 835.952 171 C 797.070 171.455, 793.033 171.658, 791.275 173.250 C 790.212 174.213, 787.905 175, 786.149 175 C 783.788 175, 781.742 176.108, 778.303 179.250 C 769.060 187.694, 765.410 192.366, 760.259 202.346 C 755.951 210.694, 755.017 213.412, 755.009 217.628 C 755.003 220.956, 754.474 223.192, 753.500 224 C 752.675 224.685, 752 225.817, 752 226.515 C 752 227.214, 752.675 228.045, 753.500 228.362 C 754.637 228.798, 755 230.641, 755 235.969 L 755 243 742.050 243 C 730.756 243, 728.974 242.776, 728.121 241.250 C 727.231 239.659, 724.522 239.469, 698.366 239.160 C 672.954 238.860, 669.447 238.627, 668.375 237.160 C 667.255 235.628, 656.944 235.500, 534.235 235.500 C 423.363 235.500, 401.035 235.727, 399.662 236.866 C 398.757 237.617, 394.975 239.720, 391.258 241.539 C 382.467 245.842, 373.341 255.175, 369.665 263.625 C 368.199 266.994, 367 270.497, 367 271.410 C 367 272.323, 366.212 274.272, 365.250 275.741 C 362.818 279.452, 362.736 296.331, 365.133 300 C 366.031 301.375, 367.011 304.975, 367.310 308 C 368.424 319.240, 378.289 331.571, 391.838 338.660 C 395.874 340.772, 400.149 343.062, 401.338 343.750 C 402.937 344.674, 411.178 344.993, 433 344.972 C 449.225 344.957, 463.512 344.957, 464.750 344.972 C 465.988 344.988, 467 345.569, 467 346.265 C 467 346.960, 467.873 349.158, 468.939 351.148 L 470.878 354.766 468.689 356.760 C 466.879 358.409, 464.629 358.844, 455.695 359.272 C 448.169 359.633, 444.375 360.241, 443.195 361.277 C 441.899 362.413, 437.669 362.877, 425.227 363.247 C 412.633 363.622, 408.564 364.074, 407.227 365.247 C 405.890 366.420, 401.822 366.873, 389.227 367.247 C 376.633 367.622, 372.564 368.074, 371.227 369.247 C 369.890 370.420, 365.822 370.873, 353.227 371.247 C 340.645 371.621, 336.563 372.074, 335.227 373.245 C 333.962 374.354, 330.223 374.887, 321.236 375.237 C 312.253 375.587, 308.508 376.120, 307.236 377.230 C 306.032 378.280, 302.335 378.909, 295.179 379.282 C 288.228 379.644, 284.309 380.295, 283.179 381.276 C 282.153 382.166, 278.231 382.972, 273.101 383.347 C 268.202 383.705, 264.034 384.538, 263.101 385.347 C 262.167 386.156, 257.999 386.989, 253.101 387.347 C 248.202 387.705, 244.034 388.538, 243.101 389.347 C 242.167 390.156, 237.999 390.989, 233.101 391.347 C 228.202 391.705, 224.034 392.538, 223.101 393.347 C 222.167 394.156, 217.999 394.989, 213.101 395.347 C 208.181 395.706, 204.038 396.537, 203.101 397.352 C 202.147 398.181, 198.138 398.961, 193.178 399.282 C 187.596 399.643, 184.277 400.344, 183.099 401.410 C 182.133 402.285, 180.132 403, 178.653 403 C 173.498 403, 165.650 408.154, 155.200 418.400 C 145.899 427.520, 144.412 429.500, 139.875 438.798 L 134.851 449.097 135.175 462.798 L 135.500 476.500 140.325 486 C 145.517 496.224, 155.131 507.314, 159.822 508.492 C 161.208 508.839, 163.451 509.996, 164.806 511.062 C 166.161 512.128, 167.947 513, 168.775 513 C 169.602 513, 170.830 513.752, 171.502 514.672 C 172.415 515.921, 174.435 516.379, 179.486 516.481 C 184.569 516.585, 186.555 517.039, 187.484 518.310 C 188.976 520.350, 191.586 520.520, 192.314 518.625 C 192.675 517.684, 195.631 517.022, 201.671 516.528 C 206.527 516.132, 211.175 515.235, 212 514.537 C 212.860 513.808, 217.726 513.003, 223.400 512.650 C 229.019 512.300, 234.207 511.446, 235.400 510.674 C 236.555 509.926, 240.391 509.017, 243.924 508.654 C 247.500 508.287, 251.115 507.301, 252.077 506.431 C 253.027 505.571, 254.411 504.975, 255.152 505.107 C 257.743 505.568, 270.511 503.748, 271.771 502.739 C 273.145 501.638, 273.356 501.604, 286 500.498 C 290.675 500.089, 295.388 499.134, 296.473 498.377 C 299.133 496.520, 302.647 496.637, 303.403 498.608 C 304.789 502.220, 293.836 510.001, 270.500 521.979 C 262.800 525.931, 254.839 530.478, 252.809 532.083 C 250.778 533.687, 248.700 535, 248.189 535 C 247.679 535, 245.001 536.800, 242.237 539 C 239.474 541.200, 236.774 543, 236.237 543 C 235.701 543, 233.001 544.800, 230.237 547 C 227.474 549.200, 224.869 551, 224.448 551 C 224.026 551, 221.298 552.800, 218.384 555 C 215.470 557.200, 212.724 559, 212.281 559 C 211.839 559, 207.972 561.925, 203.689 565.500 C 199.407 569.075, 195.510 572, 195.031 572 C 194.552 572, 191.261 574.475, 187.717 577.500 C 184.174 580.525, 180.916 583, 180.478 583 C 180.040 583, 177.298 584.800, 174.384 587 C 171.470 589.200, 168.770 591, 168.384 591 C 167.998 591, 165.298 592.800, 162.384 595 C 159.470 597.200, 156.670 599, 156.161 599 C 155.653 599, 151.250 602.600, 146.376 607 C 141.503 611.400, 136.940 615, 136.238 615 C 135.535 615, 130.187 619.500, 124.353 625 C 118.519 630.500, 113.067 635, 112.238 635 C 111.409 635, 99.800 645.800, 86.438 659 C 73.077 672.200, 61.369 683, 60.419 683 C 58.506 683, 36 704.706, 36 706.551 C 36 707.190, 34.355 709.867, 32.344 712.500 C 23.864 723.606, 23.524 724.746, 23.512 742.144 C 23.502 754.988, 23.784 758.120, 25.085 759.644 C 25.957 760.665, 27.227 762.910, 27.908 764.633 C 28.589 766.355, 30.441 769.006, 32.024 770.523 C 33.607 772.040, 35.172 774.505, 35.500 776 C 36.217 779.266, 41.187 784.274, 43.909 784.475 C 44.984 784.554, 47.909 786.505, 50.409 788.809 C 52.909 791.114, 55.717 793, 56.649 793 C 57.580 793, 59.158 793.738, 60.154 794.639 C 61.150 795.541, 63.813 796.410, 66.072 796.571 C 68.456 796.740, 70.686 797.556, 71.386 798.513 C 72.395 799.893, 74.550 800.154, 84.546 800.109 L 96.500 800.055 110.459 793.060 L 124.418 786.066 146.997 763.503 C 160.135 750.375, 170.674 740.639, 172.203 740.220 C 173.648 739.824, 182.053 732.413, 190.880 723.750 C 199.708 715.087, 207.743 708, 208.737 708 C 209.731 708, 214.359 704.140, 219.022 699.423 C 228.007 690.332, 235.624 685.563, 243.057 684.375 C 245.454 683.992, 247.078 684.089, 246.830 684.601 C 246.591 685.095, 245.582 687.300, 244.588 689.500 C 243.446 692.028, 234.726 701.672, 220.891 715.708 C 208.851 727.923, 198.987 738.723, 198.971 739.708 C 198.955 740.694, 193.969 746.675, 187.891 753 C 181.813 759.325, 176.191 765.971, 175.398 767.770 C 174.605 769.568, 170.816 774.346, 166.978 778.386 C 163.140 782.426, 160 786.202, 160 786.776 C 160 787.351, 158.200 790.098, 156 792.881 C 153.800 795.664, 152 798.364, 152 798.881 C 152 799.398, 150.200 802.098, 148 804.881 C 145.800 807.664, 144 810.364, 144 810.881 C 144 811.398, 142.200 814.098, 140 816.881 C 137.800 819.664, 136 822.364, 136 822.881 C 136 823.398, 134.200 826.098, 132 828.881 C 129.800 831.664, 128 834.340, 128 834.827 C 128 835.314, 126.492 837.690, 124.649 840.106 C 122.805 842.523, 119.799 847.425, 117.969 851 C 116.138 854.575, 113.432 859.075, 111.955 861 C 110.478 862.925, 107.778 867.425, 105.955 871 C 104.132 874.575, 101.418 879.080, 99.925 881.012 C 96.713 885.165, 71 936.431, 71 938.681 C 71 939.533, 67.400 947.722, 63 956.879 C 58.600 966.036, 55 974.302, 55 975.248 C 55 976.194, 53.605 979.788, 51.900 983.234 C 50.195 986.680, 48.193 991.525, 47.453 994 C 44.459 1003.998, 42.708 1008.844, 39.500 1016 C 35.199 1025.595, 33.123 1031.880, 31.571 1040.010 C 30.887 1043.590, 29.705 1047.640, 28.944 1049.010 C 26.802 1052.867, 27.014 1068.813, 29.250 1071.973 C 30.212 1073.332, 31 1075.370, 31 1076.501 C 31 1077.631, 32.505 1081.694, 34.345 1085.528 C 36.972 1091.005, 39.560 1094.269, 46.411 1100.750 C 51.208 1105.287, 55.855 1109, 56.738 1109 C 57.620 1109, 59.169 1109.748, 60.180 1110.663 C 61.397 1111.765, 64.007 1112.382, 67.908 1112.490 C 71.907 1112.602, 74.334 1113.192, 75.470 1114.327 C 76.827 1115.684, 79.179 1116, 87.916 1116 C 97.291 1116, 98.917 1115.749, 100.437 1114.070 C 101.444 1112.957, 103.404 1112.174, 105.063 1112.221 C 114.802 1112.498, 132.187 1097.256, 139.700 1081.856 C 142.010 1077.121, 144.180 1071.953, 144.523 1070.373 C 144.865 1068.793, 145.783 1065.925, 146.562 1064 C 147.341 1062.075, 148.401 1058.025, 148.917 1055 C 149.888 1049.305, 152.021 1042.253, 154.746 1035.731 C 155.612 1033.658, 156.594 1030.283, 156.928 1028.231 C 157.438 1025.088, 157.925 1024.500, 160.017 1024.500 C 162.491 1024.500, 162.501 1024.538, 162.785 1035.382 C 163.029 1044.683, 162.811 1046.551, 161.285 1048.237 C 159.622 1050.073, 159.480 1054.184, 159.206 1108.354 C 158.935 1161.774, 158.772 1166.605, 157.206 1167.793 C 155.646 1168.976, 155.500 1172.688, 155.500 1211.293 C 155.500 1249.882, 155.650 1253.712, 157.250 1255.973 C 158.213 1257.332, 159 1259.402, 159 1260.572 C 159 1261.741, 161.430 1267.604, 164.400 1273.599 C 168.975 1282.835, 170.946 1285.609, 177.305 1291.761 C 181.433 1295.755, 186.316 1299.720, 188.155 1300.571 C 189.995 1301.423, 192.625 1302.761, 194 1303.545 C 195.375 1304.329, 197.914 1304.977, 199.643 1304.985 C 201.504 1304.994, 203.021 1305.612, 203.362 1306.500 C 203.825 1307.706, 206.070 1308, 214.834 1308 C 224.216 1308, 226.084 1307.722, 228.273 1306 C 229.702 1304.876, 232.330 1304, 234.273 1304 C 236.216 1304, 238.844 1303.124, 240.273 1302 C 241.671 1300.900, 243.428 1300, 244.176 1300 C 244.924 1300, 247.715 1298.200, 250.377 1296 C 253.040 1293.800, 255.985 1292, 256.922 1292 C 259.077 1292, 263.546 1287.286, 264.506 1284 C 264.908 1282.625, 265.896 1280.747, 266.703 1279.828 C 267.510 1278.908, 268.412 1276.208, 268.707 1273.828 C 269.091 1270.744, 270.207 1268.492, 272.589 1265.992 L 275.932 1262.485 276.588 1231.992 C 276.949 1215.222, 277.327 1201.399, 277.429 1201.277 C 277.813 1200.812, 285.050 1211.800, 289.100 1219 C 293.620 1227.036, 298.082 1233.936, 309.468 1250.500 C 311.359 1253.250, 314.246 1257.750, 315.885 1260.500 C 317.524 1263.250, 320.410 1267.094, 322.299 1269.042 C 324.188 1270.990, 326.493 1274.054, 327.422 1275.850 C 328.351 1277.646, 333.041 1283.252, 337.845 1288.308 C 342.649 1293.363, 347.144 1298.881, 347.836 1300.569 C 349.546 1304.746, 398.135 1353, 400.631 1353 C 401.691 1353, 405.470 1355.977, 409.029 1359.616 C 412.588 1363.254, 417.301 1367.051, 419.503 1368.053 C 421.705 1369.055, 424.827 1371.253, 426.440 1372.938 C 428.054 1374.622, 430.194 1376, 431.196 1376 C 432.198 1376, 435.752 1378.514, 439.095 1381.587 C 442.437 1384.660, 446.605 1387.773, 448.356 1388.504 C 450.108 1389.236, 452.431 1390.824, 453.520 1392.033 C 454.609 1393.242, 459.064 1395.963, 463.420 1398.079 C 467.777 1400.195, 473.024 1403.570, 475.080 1405.578 C 478.690 1409.103, 481 1409.440, 481 1406.441 C 481 1403.561, 482.882 1405.087, 483.187 1408.215 C 483.455 1410.965, 483.983 1411.527, 486.841 1412.107 C 488.679 1412.480, 491.604 1414.109, 493.341 1415.726 C 496.959 1419.096, 522.113 1431.983, 526.042 1432.480 C 527.480 1432.662, 533.607 1435.294, 539.657 1438.328 C 545.708 1441.362, 552.423 1444.173, 554.579 1444.574 C 556.736 1444.975, 559.498 1446.023, 560.719 1446.902 L 562.937 1448.500 563.012 1547.500 C 563.053 1601.950, 563.488 1648.300, 563.977 1650.500 C 565.595 1657.772, 569.732 1668.680, 573.943 1676.774 C 579.553 1687.556, 589.832 1697.594, 600.404 1702.615 C 604.597 1704.606, 608.273 1706.632, 608.573 1707.117 C 608.881 1707.617, 649.360 1708, 701.904 1708 C 793.420 1708, 794.715 1707.973, 796.500 1706 C 797.733 1704.638, 799.580 1704, 802.293 1704 C 805.550 1704, 807.067 1703.271, 810.616 1700 C 813.003 1697.800, 815.781 1696, 816.791 1696 C 819.060 1696, 823.526 1691.363, 824.496 1688 C 824.893 1686.625, 826.695 1683.925, 828.500 1682 C 830.305 1680.075, 832.110 1677.375, 832.510 1676 C 832.909 1674.625, 833.971 1672.665, 834.868 1671.644 C 836.041 1670.311, 836.431 1668.217, 836.254 1664.205 C 836.055 1659.704, 836.412 1658.191, 838.093 1656.401 C 839.878 1654.501, 840.113 1653.267, 839.725 1647.840 C 839.162 1639.965, 837.275 1634.269, 830.999 1621.500 C 824.668 1608.621, 815.832 1599.589, 802.500 1592.372 L 793.500 1587.500 740.751 1587.216 L 688.002 1586.933 686.526 1584.679 C 685.047 1582.424, 684.864 1572.042, 684.975 1496.746 L 685 1479.993 699.750 1480.659 C 710.620 1481.150, 714.771 1481.693, 715.532 1482.724 C 716.401 1483.903, 726.487 1484.074, 779.629 1483.812 C 824.118 1483.592, 843.108 1483.171, 844.097 1482.384 C 844.869 1481.770, 851.350 1480.697, 858.500 1480 C 865.650 1479.303, 871.950 1478.397, 872.500 1477.988 C 873.050 1477.578, 876.608 1476.920, 880.407 1476.525 C 884.205 1476.130, 889.830 1475.009, 892.907 1474.032 L 898.500 1472.257 898.737 1478.879 C 898.868 1482.520, 899.093 1514.366, 899.237 1549.646 C 899.481 1609.116, 899.628 1613.932, 901.250 1615.725 C 902.597 1617.212, 903.010 1619.482, 903.044 1625.579 C 903.069 1630.154, 903.732 1635.190, 904.612 1637.500 C 905.451 1639.700, 906.565 1643.216, 907.088 1645.314 C 907.611 1647.411, 910.122 1653.261, 912.667 1658.314 C 916.790 1666.496, 918.783 1668.990, 930.898 1681.137 C 942.332 1692.601, 945.657 1695.331, 951.758 1698.271 C 955.750 1700.195, 959.695 1702.332, 960.525 1703.021 C 961.355 1703.709, 963.843 1704.273, 966.055 1704.273 C 968.954 1704.273, 970.354 1704.793, 971.073 1706.136 C 972.035 1707.935, 975.435 1708, 1068.053 1708 L 1164.036 1708 1173.855 1703.073 C 1179.255 1700.363, 1184.984 1697.051, 1186.587 1695.713 C 1188.189 1694.376, 1190.963 1692.532, 1192.750 1691.615 C 1194.537 1690.699, 1196 1689.301, 1196 1688.509 C 1196 1687.717, 1197.296 1685.591, 1198.881 1683.785 C 1203.816 1678.158, 1208.063 1670.010, 1208.545 1665.241 C 1208.812 1662.607, 1209.699 1660.209, 1210.671 1659.499 C 1212.763 1657.969, 1212.666 1650.393, 1210.524 1648.027 C 1209.594 1646.999, 1208.903 1643.631, 1208.658 1638.929 C 1208.093 1628.102, 1205.134 1622.930, 1191.625 1609.159 C 1183.096 1600.464, 1178.931 1597.022, 1173.775 1594.409 C 1170.076 1592.534, 1166.123 1591, 1164.990 1591 C 1163.857 1591, 1161.728 1590.212, 1160.260 1589.250 C 1157.797 1587.636, 1152.451 1587.477, 1091.295 1587.204 L 1025 1586.907 1025 1512.954 C 1025 1472.279, 1024.958 1438.692, 1024.907 1438.315 C 1024.855 1437.939, 1035.683 1432.133, 1048.969 1425.414 C 1062.254 1418.695, 1073.884 1412.552, 1074.812 1411.763 C 1076.537 1410.297, 1096.626 1399, 1097.508 1399 C 1097.776 1399, 1100.134 1397.528, 1102.748 1395.728 C 1105.361 1393.929, 1110.085 1391.117, 1113.244 1389.478 C 1116.403 1387.840, 1121.782 1384.138, 1125.197 1381.250 C 1128.613 1378.362, 1131.832 1376, 1132.351 1376 C 1132.869 1376, 1135.140 1374.491, 1137.397 1372.648 C 1139.654 1370.804, 1142.850 1368.596, 1144.500 1367.742 C 1146.150 1366.888, 1150.114 1363.897, 1153.308 1361.095 C 1156.503 1358.293, 1159.670 1356, 1160.347 1356 C 1161.024 1356, 1164.619 1353.300, 1168.336 1350 C 1172.054 1346.700, 1175.777 1344, 1176.610 1344 C 1177.444 1344, 1182.750 1339.500, 1188.403 1334 C 1194.162 1328.398, 1199.523 1324, 1200.595 1324 C 1203.076 1324, 1283.543 1243.447, 1284.506 1240 C 1284.890 1238.625, 1288.488 1234.125, 1292.500 1230 C 1296.512 1225.875, 1300.114 1221.375, 1300.502 1220 C 1300.891 1218.625, 1303.590 1215.025, 1306.500 1212 C 1309.410 1208.975, 1312.110 1205.375, 1312.500 1204 C 1312.890 1202.625, 1315.569 1199.025, 1318.453 1196 C 1321.337 1192.975, 1324.251 1189.082, 1324.928 1187.349 C 1325.606 1185.616, 1327.289 1183.141, 1328.668 1181.849 C 1330.047 1180.557, 1331.754 1178.117, 1332.462 1176.427 C 1333.170 1174.737, 1335.062 1171.812, 1336.665 1169.927 C 1338.268 1168.042, 1340.130 1165.229, 1340.802 1163.676 C 1341.474 1162.123, 1343.327 1159.198, 1344.918 1157.176 C 1346.510 1155.154, 1349.054 1151.025, 1350.570 1148 C 1352.087 1144.975, 1354.615 1140.700, 1356.187 1138.500 C 1364.828 1126.407, 1369.439 1118.197, 1383.835 1089.270 C 1392.544 1071.770, 1399.996 1056.112, 1400.394 1054.476 C 1401.100 1051.572, 1404.060 1044.485, 1406.222 1040.523 C 1406.816 1039.435, 1407.885 1036.510, 1408.598 1034.023 C 1409.311 1031.535, 1410.630 1027.250, 1411.529 1024.500 C 1413.003 1019.992, 1413.977 1017.624, 1418.523 1007.500 C 1419.826 1004.597, 1421.609 999.368, 1424.489 990 C 1426.133 984.653, 1428.685 977.213, 1431.006 971 C 1431.931 968.525, 1432.779 964.700, 1432.892 962.501 C 1433.004 960.302, 1433.717 957.555, 1434.475 956.397 C 1435.234 955.240, 1436.163 952.539, 1436.540 950.396 C 1436.916 948.253, 1437.784 945.600, 1438.468 944.500 C 1439.152 943.400, 1440.038 939.800, 1440.437 936.500 C 1440.835 933.200, 1441.735 929.600, 1442.437 928.500 C 1443.138 927.400, 1444.038 923.800, 1444.437 920.500 C 1444.835 917.200, 1445.735 913.600, 1446.437 912.500 C 1447.138 911.400, 1448.038 907.800, 1448.437 904.500 C 1448.835 901.200, 1449.763 897.560, 1450.498 896.412 C 1451.233 895.263, 1452.152 890.538, 1452.540 885.912 C 1452.928 881.285, 1453.825 876.825, 1454.534 876 C 1455.288 875.122, 1456.117 870.145, 1456.531 864 C 1456.938 857.975, 1457.781 852.861, 1458.509 852 C 1459.353 851.003, 1460.018 844.899, 1460.494 833.785 C 1461.024 821.400, 1461.571 816.771, 1462.605 815.913 C 1463.775 814.942, 1464 803.224, 1464 743.413 C 1464 673.094, 1463.971 672.055, 1462 671 C 1460.145 670.007, 1460 668.906, 1460 655.794 C 1460 643.990, 1459.724 641.353, 1458.330 639.812 C 1457.095 638.447, 1456.508 635.271, 1456.080 627.635 C 1455.761 621.952, 1454.966 616.661, 1454.314 615.877 C 1453.662 615.092, 1452.820 611.986, 1452.443 608.975 C 1452.066 605.964, 1451.154 602.150, 1450.415 600.500 C 1449.676 598.850, 1448.623 594.643, 1448.075 591.150 C 1447.527 587.658, 1446.651 584.283, 1446.129 583.650 C 1445.606 583.018, 1444.863 580.700, 1444.477 578.500 C 1444.091 576.300, 1443.151 573.503, 1442.388 572.285 C 1441.624 571.067, 1441 569.117, 1441 567.952 C 1441 564.590, 1438.869 566.139, 1434.479 572.692 C 1432.256 576.009, 1426.177 583.311, 1420.969 588.919 C 1415.761 594.526, 1410.518 600.734, 1409.317 602.716 C 1406.172 607.906, 1393.470 620.508, 1386.693 625.164 C 1383.499 627.357, 1375.553 634.413, 1369.035 640.844 L 1357.185 652.535 1356.842 709.163 C 1356.537 759.695, 1356.325 765.991, 1354.875 767.646 C 1353.541 769.168, 1353.157 772.906, 1352.730 788.500 C 1352.360 802.040, 1351.772 808.650, 1350.685 811.500 C 1349.846 813.700, 1348.876 818.322, 1348.528 821.772 C 1348.180 825.222, 1347.244 829.891, 1346.448 832.148 C 1345.652 834.405, 1345 838.373, 1345 840.966 C 1345 843.559, 1344.168 849.015, 1343.150 853.090 C 1342.133 857.166, 1340.310 865, 1339.099 870.500 C 1333.931 893.968, 1331.499 903.939, 1329.237 910.937 C 1324.381 925.963, 1309.991 962.957, 1302.764 979 C 1298.675 988.075, 1294.722 997.075, 1293.979 999 C 1290.496 1008.021, 1274.347 1038.652, 1267.800 1048.653 C 1263.785 1054.788, 1256.900 1065.938, 1252.500 1073.432 C 1248.100 1080.927, 1239.811 1094.132, 1234.080 1102.779 C 1228.348 1111.426, 1222.723 1119.992, 1221.580 1121.815 C 1220.436 1123.638, 1217.250 1127.870, 1214.500 1131.218 C 1208.273 1138.801, 1202.516 1146.628, 1200.458 1150.310 C 1199.594 1151.855, 1195.312 1157.371, 1190.943 1162.567 C 1186.575 1167.764, 1183 1172.504, 1183 1173.101 C 1183 1174.552, 1124.251 1233.701, 1119.025 1237.512 C 1116.771 1239.155, 1111.368 1243.200, 1107.018 1246.500 C 1102.667 1249.800, 1095.461 1255.200, 1091.004 1258.500 C 1086.547 1261.800, 1080.560 1266.339, 1077.700 1268.587 C 1070.127 1274.539, 1046.550 1289.979, 1039 1293.932 C 1035.425 1295.803, 1029.575 1299.118, 1026 1301.297 C 1022.425 1303.477, 1017.025 1306.539, 1014 1308.102 C 1005.746 1312.367, 973.047 1328, 972.382 1328 C 972.063 1328, 970.384 1328.653, 968.651 1329.452 C 956.084 1335.243, 916.555 1348.340, 894.512 1354.017 C 880.951 1357.510, 864.453 1360.550, 831 1365.722 C 821.221 1367.234, 812.690 1367.497, 774 1367.482 C 725.493 1367.463, 722.165 1367.307, 700.500 1364.047 C 653.833 1357.024, 613.455 1345.214, 577.500 1328.072 C 561.767 1320.570, 518.223 1294.275, 510.208 1287.434 C 506.747 1284.481, 498.872 1278.571, 492.708 1274.301 C 480.318 1265.718, 453.065 1239.933, 445.391 1229.532 C 442.943 1226.214, 439.007 1221.025, 436.645 1218 C 431.545 1211.468, 423.960 1199.277, 414.008 1181.620 C 404.528 1164.798, 401.263 1157.557, 395.154 1139.804 C 392.372 1131.722, 389.110 1123.175, 387.904 1120.813 C 385.216 1115.544, 381.530 1101.272, 380.049 1090.398 C 379.442 1085.941, 378.488 1080.766, 377.928 1078.898 C 377.295 1076.780, 376.909 1055.282, 376.905 1021.840 C 376.899 975.608, 377.112 967.667, 378.449 964.468 C 379.302 962.426, 380 959.784, 380 958.596 C 380 957.408, 380.681 953.975, 381.514 950.968 C 382.346 947.961, 383.504 942.575, 384.086 939 C 385.187 932.243, 385.922 929.723, 393.569 906.500 C 398.758 890.739, 417.215 852.026, 421.424 848.072 C 422.841 846.740, 424 844.705, 424 843.548 C 424 842.391, 424.618 840.557, 425.372 839.473 C 426.127 838.388, 427.081 835.925, 427.492 834 C 427.903 832.075, 429.692 828.475, 431.467 826 C 433.242 823.525, 436.001 819.028, 437.597 816.008 C 442.628 806.490, 458.863 782.956, 465.078 776.173 C 468.361 772.590, 471.290 768.695, 471.585 767.516 C 472.260 764.828, 537.148 700, 539.164 700 C 539.978 700, 543.762 697.302, 547.572 694.003 C 551.382 690.705, 554.900 688.005, 555.389 688.003 C 555.877 688.002, 559.437 685.413, 563.299 682.250 C 570.522 676.335, 575.025 673.317, 588 665.698 C 592.125 663.275, 598.425 659.508, 602 657.325 C 615.137 649.306, 667.316 624.314, 674.500 622.600 C 678.350 621.681, 683.300 620.076, 685.500 619.034 C 690.703 616.567, 727.185 604.732, 737.500 602.165 C 741.900 601.070, 749.100 599.271, 753.500 598.169 C 757.900 597.066, 763.975 595.862, 767 595.493 C 770.025 595.125, 774.300 594.238, 776.500 593.524 C 778.700 592.809, 784.775 591.912, 790 591.530 C 795.225 591.148, 801.635 590.222, 804.244 589.473 C 806.853 588.724, 816.303 587.810, 825.244 587.442 C 837.764 586.927, 842.075 586.397, 844 585.137 C 846.170 583.716, 850.334 583.500, 875.544 583.500 C 900.434 583.500, 904.940 583.728, 907.044 585.095 C 909.092 586.424, 914.469 586.793, 939.381 587.315 C 963.813 587.827, 969.689 588.222, 971.607 589.478 C 973.641 590.811, 981.410 591.033, 1029.956 591.147 C 1072.618 591.247, 1086.309 590.989, 1087.425 590.063 C 1088.231 589.394, 1093.752 588.431, 1099.695 587.923 C 1105.638 587.415, 1112.237 586.517, 1114.360 585.927 C 1116.483 585.337, 1121.658 584.259, 1125.860 583.533 C 1130.062 582.806, 1136.875 581.460, 1141 580.541 C 1150.580 578.407, 1190.875 565.004, 1202 560.251 C 1224.770 550.522, 1252.164 534.502, 1267.666 521.849 C 1271.608 518.632, 1275.168 516, 1275.579 516 C 1275.989 516, 1279.589 513.300, 1283.579 510 C 1287.568 506.700, 1291.168 504, 1291.579 504 C 1291.989 504, 1295.515 501.396, 1299.413 498.214 C 1303.311 495.032, 1307.808 491.600, 1309.407 490.588 C 1311.006 489.576, 1315.884 485.410, 1320.246 481.330 C 1324.608 477.251, 1330.047 472.733, 1332.332 471.290 C 1334.618 469.847, 1339.008 466.604, 1342.089 464.084 C 1345.169 461.563, 1349.672 458.312, 1352.095 456.859 C 1354.518 455.406, 1360.100 451.753, 1364.500 448.741 C 1380.189 438, 1387.570 433.559, 1392.500 431.895 C 1398.119 429.999, 1404.395 427.336, 1411.026 424.037 C 1420.011 419.567, 1432.045 415.908, 1449 412.491 C 1453.125 411.660, 1459.458 410.275, 1463.073 409.413 C 1472.274 407.220, 1494.715 406.938, 1496.020 409 C 1496.789 410.215, 1496.972 410.234, 1496.985 409.098 C 1497.008 407.001, 1558.108 408.442, 1559.298 410.568 C 1559.985 411.796, 1574.810 412, 1663.395 412 C 1765.420 412, 1766.712 411.975, 1768.500 410 C 1769.834 408.526, 1771.580 408, 1775.139 408 C 1780.517 408, 1790.614 403.694, 1794.964 399.546 C 1796.359 398.216, 1798.743 396.658, 1800.262 396.084 C 1801.782 395.510, 1803.564 393.794, 1804.222 392.270 C 1804.881 390.747, 1806.693 388.002, 1808.248 386.172 C 1811.834 381.951, 1817 371.093, 1817 367.776 C 1817 366.384, 1817.675 364.685, 1818.500 364 C 1819.680 363.021, 1820 360.213, 1820 350.858 L 1820 338.960 1815.373 329.730 C 1809.319 317.653, 1796.043 303.602, 1785.775 298.404 C 1782.076 296.532, 1778.123 295, 1776.990 295 C 1775.857 295, 1773.728 294.212, 1772.259 293.250 C 1769.754 291.608, 1761.161 291.483, 1633.618 291.226 C 1534.383 291.027, 1497.280 290.647, 1496.287 289.823 C 1495.538 289.201, 1492.480 283.925, 1489.492 278.096 C 1486.504 272.268, 1482.509 265.157, 1480.615 262.293 C 1478.721 259.429, 1475.912 254.704, 1474.372 251.793 C 1471.004 245.427, 1461.832 231.783, 1457.824 227.177 C 1456.234 225.349, 1453.770 221.974, 1452.348 219.677 C 1450.927 217.380, 1448.503 214.150, 1446.963 212.500 C 1445.423 210.850, 1442.577 207.075, 1440.640 204.112 C 1438.702 201.148, 1432.852 194.389, 1427.639 189.091 C 1422.426 183.793, 1417.109 177.450, 1415.824 174.995 C 1414.193 171.880, 1412.129 169.800, 1408.993 168.108 C 1406.522 166.775, 1398.119 159.394, 1390.321 151.704 C 1382.523 144.014, 1374.562 136.773, 1372.631 135.612 C 1365.578 131.370, 1359.771 127.410, 1354.869 123.500 C 1352.111 121.300, 1348.425 118.509, 1346.677 117.297 C 1344.930 116.085, 1341.594 113.714, 1339.264 112.026 C 1336.935 110.339, 1328.333 105.592, 1320.149 101.477 C 1311.965 97.362, 1303.594 92.664, 1301.547 91.037 C 1297.739 88.011, 1294.242 86.425, 1293.348 87.319 C 1293.072 87.594, 1285.788 84.296, 1277.161 79.988 C 1268.533 75.681, 1260.130 71.840, 1258.487 71.453 C 1256.844 71.066, 1252.195 69.204, 1248.156 67.316 C 1244.116 65.428, 1238.567 63.618, 1235.825 63.293 C 1233.083 62.968, 1229.205 61.869, 1227.208 60.851 C 1225.211 59.833, 1222.531 59, 1221.253 59 C 1219.975 59, 1217.933 58.369, 1216.715 57.598 C 1215.497 56.827, 1212.925 55.894, 1211 55.524 C 1209.075 55.154, 1205.941 54.142, 1204.035 53.277 C 1202.129 52.411, 1197.404 51.478, 1193.535 51.204 C 1189.630 50.927, 1185.427 50.005, 1184.088 49.131 C 1182.436 48.053, 1178.505 47.430, 1171.606 47.153 C 1163.798 46.840, 1161.270 46.384, 1160.350 45.124 C 1159.293 43.678, 1154.465 43.463, 1116.379 43.165 C 1077.859 42.864, 1073.475 42.664, 1072.379 41.165 C 1071.260 39.635, 1064.566 39.500, 990 39.500 C 913.858 39.500, 908.760 39.608, 907.559 41.250 C 906.458 42.756, 904.526 43, 893.689 43 C 884.186 43, 880.903 42.669, 880.300 41.651 C 878.841 39.189, 874.461 38.833, 872.485 41.016 M 897.549 168.159 C 896.476 168.800, 894.567 170.550, 893.307 172.048 C 891.692 173.967, 889.661 174.974, 886.430 175.458 C 880.539 176.342, 875.403 180.890, 871.028 189.099 C 867.874 195.017, 867.759 195.639, 867.801 206.617 C 867.825 212.878, 868.396 219.687, 869.069 221.750 C 871.622 229.570, 880.023 240, 883.770 240 C 884.298 240, 885.815 240.853, 887.141 241.896 C 890.835 244.802, 897.878 245.046, 954.646 244.240 C 1000.765 243.586, 1007.006 243.311, 1008.646 241.868 C 1009.666 240.971, 1011.500 239.932, 1012.722 239.560 C 1016.600 238.378, 1026.060 227.859, 1029.235 221.196 C 1032.035 215.321, 1032.207 214.299, 1031.765 206.196 C 1031.373 198.997, 1030.800 196.639, 1028.436 192.500 C 1023.845 184.458, 1016.526 177.914, 1006 172.441 L 996.500 167.500 948 167.247 C 912.458 167.061, 898.979 167.305, 897.549 168.159 M 1247.500 252.342 C 1230.420 258.097, 1216.289 270.307, 1208.649 285.913 C 1205.382 292.587, 1203.930 296.884, 1203.661 300.679 C 1203.442 303.766, 1202.587 306.799, 1201.641 307.845 C 1199.110 310.641, 1199.351 324.500, 1202 328.500 C 1203.093 330.150, 1203.990 332.679, 1203.993 334.119 C 1203.997 335.645, 1205.615 338.777, 1207.866 341.619 C 1209.993 344.304, 1212.031 347.458, 1212.395 348.628 C 1213.188 351.176, 1225.851 364, 1227.574 364 C 1228.239 364, 1230.960 365.800, 1233.623 368 C 1237.259 371.005, 1239.346 372, 1242.009 372 C 1244.318 372, 1246.153 372.698, 1247.268 374 C 1249.074 376.109, 1252.856 376.418, 1272.500 376.062 C 1279.862 375.928, 1281.258 375.544, 1290 371.242 C 1297.911 367.349, 1300.796 365.227, 1307.249 358.558 C 1317.117 348.360, 1324 335.185, 1324 326.498 C 1324 322.094, 1324.377 320.869, 1326 320 C 1328.456 318.685, 1328.575 315.265, 1326.277 311.986 C 1325.330 310.633, 1324.266 306.737, 1323.913 303.327 C 1323.534 299.659, 1322.604 296.461, 1321.636 295.493 C 1320.736 294.593, 1320 292.510, 1320 290.863 C 1320 287.501, 1318.752 284.752, 1315.958 281.958 C 1314.919 280.919, 1312.904 277.770, 1311.480 274.961 C 1309.577 271.206, 1307.912 269.410, 1305.188 268.177 C 1303.151 267.255, 1299.825 265.228, 1297.797 263.673 C 1295.768 262.118, 1290.147 258.802, 1285.304 256.305 L 1276.500 251.764 1264 251.379 C 1255.250 251.110, 1250.300 251.399, 1247.500 252.342 M 774.610 348.453 C 765.261 351.836, 755.141 360.995, 750.249 370.500 C 747.922 375.021, 747.691 376.505, 747.838 386 C 747.975 394.898, 748.316 396.929, 750.074 399.310 C 751.216 400.856, 753.499 404.121, 755.148 406.565 C 756.798 409.009, 759.127 411.510, 760.324 412.123 C 761.521 412.735, 764.121 414.785, 766.103 416.677 L 769.705 420.118 784.103 420.309 C 792.021 420.414, 818.923 420.387, 843.885 420.250 L 889.269 420 898.635 410.816 L 908 401.632 908 395.351 C 908 390.094, 908.326 388.896, 910 388 C 912.511 386.656, 912.606 382.675, 910.183 380.289 C 909.184 379.305, 908.270 376.941, 908.151 375.036 C 907.688 367.587, 898.899 354.392, 892.790 351.973 C 890.981 351.257, 888.666 349.957, 887.646 349.085 C 886.011 347.687, 879.452 347.473, 832.146 347.273 C 788.103 347.086, 777.804 347.297, 774.610 348.453 M 571.500 448.260 C 566.034 450.195, 519.546 474.233, 517 476.441 C 515.625 477.634, 505.725 483.033, 495 488.440 C 484.275 493.847, 474.600 499.083, 473.499 500.076 C 472.398 501.069, 466.098 504.656, 459.499 508.048 C 452.900 511.440, 446.375 515.242, 445 516.495 C 443.625 517.749, 441.391 519.112, 440.036 519.523 C 436.008 520.745, 417.592 539.785, 414.525 545.897 C 412.052 550.827, 411.850 552.083, 412.199 560.397 C 412.546 568.670, 412.959 570.263, 416.726 577.864 C 421.374 587.240, 425.120 592, 427.853 592 C 428.863 592, 430.505 592.900, 431.500 594 C 432.726 595.355, 434.580 596, 437.247 596 C 439.554 596, 442.152 596.761, 443.520 597.837 C 446.147 599.904, 451.201 599.668, 453.090 597.391 C 453.725 596.626, 455.507 596, 457.050 596 C 460.038 596, 472.137 590.130, 475.490 587.054 C 476.595 586.039, 482.488 582.721, 488.585 579.679 C 494.681 576.638, 500.981 573.047, 502.585 571.700 C 504.188 570.353, 517.682 563.158, 532.571 555.711 C 547.460 548.265, 560.960 541.065, 562.571 539.713 C 564.182 538.361, 572.334 533.834, 580.686 529.653 C 589.038 525.473, 597.422 520.690, 599.318 519.026 C 601.213 517.362, 603.407 516, 604.192 516 C 605.692 516, 612 510.328, 612 508.979 C 612 508.549, 613.800 504.391, 616 499.740 C 620.614 489.984, 621.176 484.296, 618 479.500 C 616.907 477.850, 616.010 475.321, 616.007 473.881 C 616.003 472.360, 614.384 469.213, 612.149 466.381 C 610.030 463.696, 607.997 460.262, 607.630 458.750 C 607.131 456.697, 606.352 456, 604.556 456 C 603.061 456, 600.702 454.497, 598.325 452.029 L 594.500 448.058 584.500 447.628 C 578.800 447.383, 573.210 447.655, 571.500 448.260 M 283.927 675.987 C 281.182 676.782, 258.346 688.536, 256.250 690.233 C 255.563 690.790, 255 692.090, 255 693.122 C 255 694.155, 254.375 695, 253.611 695 C 251.514 695, 247.933 698.248, 247.612 700.441 C 247.445 701.579, 246.049 702.818, 244.235 703.440 C 240.397 704.756, 239.707 705.443, 239.508 708.143 C 239.398 709.638, 238.314 710.621, 235.925 711.393 C 233.410 712.206, 232.412 713.164, 232.169 715 C 231.986 716.375, 230.364 719.075, 228.563 721 C 226.762 722.925, 223.591 727.997, 221.515 732.271 C 219.439 736.545, 217.349 740.284, 216.870 740.580 C 216.392 740.876, 216.003 744.804, 216.007 749.309 C 216.012 755.801, 216.425 758.122, 218 760.500 C 219.093 762.150, 219.990 764.576, 219.993 765.890 C 220.008 771.216, 228.335 784, 231.788 784 C 232.556 784, 234.329 784.900, 235.727 786 C 237.126 787.100, 239.039 788, 239.980 788 C 240.920 788, 242.535 788.934, 243.568 790.075 C 245.312 792.002, 246.341 792.127, 258.028 791.825 L 270.610 791.500 274.555 787.759 C 276.725 785.701, 279.061 784.013, 279.747 784.009 C 280.433 784.004, 282.683 782.477, 284.747 780.615 C 286.811 778.753, 290.188 776.526, 292.250 775.666 C 294.670 774.657, 296 773.445, 296 772.251 C 296 769.906, 297.877 768, 300.187 768 C 301.169 768, 308.493 761.362, 316.461 753.250 C 331.759 737.676, 335.988 731.499, 335.996 724.719 C 335.999 722.283, 336.534 720.732, 337.500 720.362 C 338.325 720.045, 339 718.982, 339 718 C 339 717.018, 338.325 715.955, 337.500 715.638 C 336.543 715.271, 336 713.731, 336 711.381 C 336 705.531, 331.229 697.290, 323 688.924 C 312.988 678.745, 307.997 676.316, 295.843 675.709 C 290.704 675.452, 285.342 675.578, 283.927 675.987" stroke="none" fill="#060735" fill-rule="evenodd"/><path d="M 1468.500 408.895 C 1466.300 409.266, 1464.017 409.869, 1463.426 410.235 C 1462.836 410.601, 1458.379 411.394, 1453.522 411.997 C 1448.666 412.601, 1443.919 413.508, 1442.974 414.014 C 1442.029 414.520, 1438.386 415.584, 1434.878 416.379 C 1426.189 418.348, 1419.954 420.547, 1410.500 424.976 C 1406.100 427.037, 1399.800 429.740, 1396.500 430.984 C 1387.507 434.372, 1381.996 437.435, 1369 446.265 C 1366.525 447.947, 1359.775 452.488, 1354 456.357 C 1348.225 460.225, 1341.829 464.862, 1339.787 466.660 C 1337.744 468.458, 1334.246 471.082, 1332.012 472.492 C 1329.779 473.902, 1323.832 478.868, 1318.796 483.528 C 1313.761 488.188, 1309.252 492, 1308.777 492 C 1308.301 492, 1304.340 494.813, 1299.975 498.250 C 1283.528 511.202, 1277.171 516, 1276.454 516 C 1276.048 516, 1273.394 517.983, 1270.556 520.408 C 1253.286 535.163, 1214.850 556.808, 1191.500 564.928 C 1156.147 577.223, 1138.427 582.317, 1124.625 584.150 C 1120.844 584.652, 1116.893 585.522, 1115.846 586.082 C 1114.799 586.643, 1108.443 587.569, 1101.721 588.141 C 1095 588.713, 1088.869 589.703, 1088.097 590.341 C 1087.081 591.181, 1071.444 591.582, 1031.295 591.797 C 981.185 592.066, 975.591 591.936, 972.698 590.429 C 970.002 589.025, 964.946 588.685, 940.500 588.266 C 914.921 587.827, 911.005 587.546, 907.305 585.884 C 903.520 584.184, 900.389 584, 875.277 584 C 850.710 584, 847.161 584.199, 845.020 585.698 C 843.066 587.067, 839.050 587.541, 824.348 588.136 C 814.312 588.543, 805.160 589.379, 804.009 589.995 C 802.858 590.611, 796.569 591.548, 790.033 592.077 C 783.497 592.607, 776.653 593.647, 774.824 594.390 C 772.996 595.132, 768.397 596.043, 764.604 596.413 C 760.812 596.783, 756.891 597.523, 755.892 598.058 C 754.893 598.593, 751.021 599.647, 747.288 600.402 C 737.075 602.467, 726.920 605.022, 723 606.513 C 721.075 607.246, 715.225 609.219, 710 610.897 C 697.267 614.988, 693.025 616.489, 683 620.450 C 678.325 622.298, 672.770 624.056, 670.655 624.357 C 662.674 625.495, 594.983 660.724, 577.760 672.703 C 575.153 674.516, 572.646 676, 572.188 676 C 571.731 676, 568.238 678.698, 564.428 681.997 C 560.618 685.295, 557.018 687.995, 556.428 687.997 C 555.838 687.998, 552.238 690.698, 548.428 693.997 C 544.618 697.295, 541.115 699.995, 540.644 699.997 C 538.962 700.003, 533.092 705.530, 503.666 734.812 C 487.257 751.140, 473.005 766.101, 471.994 768.058 C 470.982 770.015, 467.308 774.668, 463.828 778.397 C 460.347 782.127, 457.050 786.154, 456.500 787.347 C 455.950 788.540, 454.021 791.537, 452.214 794.008 C 446.949 801.206, 440.699 811.100, 438.007 816.500 C 436.636 819.250, 434.134 823.300, 432.446 825.500 C 430.759 827.700, 428.383 832.576, 427.168 836.336 C 425.189 842.456, 425.077 843.818, 426.097 849.336 C 427.590 857.411, 431.736 870.592, 434.171 875 C 441.284 887.879, 443.262 889.955, 453.235 894.998 C 466.715 901.816, 479.536 902.479, 495.889 897.206 C 503.327 894.807, 504.948 893.820, 510.191 888.500 C 513.443 885.200, 517.578 880.025, 519.381 877 C 521.183 873.975, 525.287 867, 528.500 861.500 C 531.713 856, 538.013 845.650, 542.500 838.500 C 546.988 831.350, 551.882 822.531, 553.378 818.902 C 556.253 811.922, 556.472 811.584, 567.639 796.892 C 581.243 778.995, 592.888 769.656, 607.413 764.993 C 615.504 762.396, 630.325 765.571, 636.116 771.143 C 641.618 776.437, 646.463 785.808, 648.309 794.727 C 650.601 805.799, 648.706 812.991, 638.490 832 C 637.160 834.475, 634.571 839.650, 632.737 843.500 C 630.903 847.350, 628.197 852.750, 626.722 855.500 C 625.248 858.250, 621.509 866.575, 618.414 874 C 615.319 881.425, 611.086 890.875, 609.008 895 C 603.670 905.597, 593.694 931.529, 587.272 951.500 C 584.266 960.850, 580.766 970.975, 579.496 974 C 578.226 977.025, 575.788 985.125, 574.080 992 C 572.371 998.875, 570.358 1006.750, 569.607 1009.501 C 566.366 1021.375, 562.772 1046.479, 563.374 1053.037 C 563.997 1059.823, 567.065 1069.972, 571.030 1078.366 C 574.489 1085.688, 583.404 1094.026, 592.918 1098.838 C 602.860 1103.866, 611.231 1105.475, 623.359 1104.690 C 640.768 1103.562, 651.018 1095.483, 659.760 1076 C 663.067 1068.628, 663.790 1065.077, 664.442 1053 C 665.406 1035.133, 666.720 1028.411, 671.573 1016.500 C 679.150 997.906, 679.414 997.517, 688.543 991.442 C 693.063 988.435, 699.403 985.060, 702.631 983.942 C 708.309 981.975, 708.771 981.962, 716.849 983.553 C 726.552 985.464, 733.316 988.270, 740.983 993.566 C 747.986 998.404, 749.445 1000.109, 753.194 1007.835 C 756.086 1013.794, 756.238 1014.682, 755.762 1022.835 C 755.381 1029.369, 754.504 1033.345, 752.199 1039 C 746.299 1053.471, 743.883 1064.343, 743.272 1079.173 C 742.900 1088.204, 743.130 1094.993, 743.947 1099.173 C 745.519 1107.205, 753.283 1135.905, 756.128 1144.194 C 758.748 1151.830, 766.613 1167.050, 772.690 1176.245 C 781.219 1189.151, 802.701 1209.603, 819.239 1220.563 C 826.813 1225.581, 846.003 1235.342, 856.316 1239.421 C 863.930 1242.432, 881.568 1248, 883.493 1248 C 884.178 1248, 887.418 1248.856, 890.692 1249.902 C 894.275 1251.046, 901.554 1252.096, 908.973 1252.539 C 915.965 1252.956, 922.427 1253.862, 923.901 1254.631 C 927.480 1256.499, 940.690 1256.410, 944.364 1254.494 C 945.940 1253.672, 949.540 1252.973, 952.364 1252.941 C 970.802 1252.728, 1007.469 1245.190, 1035 1235.952 C 1057.288 1228.473, 1088.775 1214.783, 1097 1208.994 C 1098.375 1208.026, 1101.188 1206.281, 1103.250 1205.117 C 1107.245 1202.862, 1110.225 1201.170, 1119 1196.178 C 1122.025 1194.457, 1125.850 1191.860, 1127.500 1190.408 C 1129.150 1188.955, 1132.300 1186.628, 1134.500 1185.237 C 1136.700 1183.846, 1140.525 1181.051, 1143 1179.026 C 1145.475 1177.001, 1150.089 1173.579, 1153.253 1171.422 C 1156.417 1169.265, 1161.056 1166.091, 1163.562 1164.368 C 1172.749 1158.051, 1187.317 1145.077, 1191.626 1139.375 C 1193.615 1136.743, 1194.264 1136.549, 1201.626 1136.375 L 1209.500 1136.189 1213.211 1132.010 C 1217.958 1126.664, 1241.444 1091.683, 1246.451 1082.500 C 1248.550 1078.650, 1251.220 1074.152, 1252.384 1072.504 C 1253.548 1070.856, 1255.342 1067.931, 1256.371 1066.004 C 1257.400 1064.077, 1262.051 1056.650, 1266.708 1049.500 C 1274.467 1037.586, 1290.133 1007.846, 1294.363 997 C 1295.328 994.525, 1299.451 985.075, 1303.525 976 C 1318.079 943.584, 1331.872 904.301, 1335.126 886 C 1335.664 882.975, 1336.558 878.475, 1337.113 876 C 1337.668 873.525, 1338.763 868.446, 1339.546 864.712 C 1340.329 860.979, 1341.441 857.045, 1342.016 855.971 C 1342.591 854.896, 1343.304 850.301, 1343.601 845.758 C 1343.898 841.216, 1344.799 835.644, 1345.605 833.377 C 1346.410 831.109, 1347.445 825.901, 1347.904 821.804 C 1348.364 817.707, 1349.332 813.263, 1350.056 811.928 C 1350.961 810.261, 1351.550 803.140, 1351.937 789.212 C 1352.396 772.685, 1352.778 768.752, 1354 767.999 C 1355.295 767.200, 1355.568 759.294, 1356 710.052 L 1356.500 653.029 1368.500 640.968 C 1375.100 634.334, 1382.779 627.384, 1385.564 625.524 C 1393.518 620.209, 1400.398 613.571, 1406.621 605.210 C 1409.776 600.969, 1416.049 593.633, 1420.560 588.908 C 1425.072 584.182, 1430.028 578.332, 1431.574 575.908 C 1433.121 573.483, 1435.496 570.275, 1436.853 568.778 C 1438.892 566.529, 1439.437 564.618, 1439.993 557.778 C 1440.704 549.036, 1442.791 543.647, 1448.059 536.950 C 1451.459 532.628, 1470.735 493.866, 1477.374 478 C 1480.021 471.675, 1482.626 464.475, 1483.163 462 C 1484.671 455.048, 1489.161 440.644, 1490.251 439.260 C 1490.789 438.578, 1491.444 434.978, 1491.708 431.260 C 1491.972 427.542, 1493.088 421.740, 1494.189 418.366 C 1497.405 408.515, 1497.413 408.524, 1483.988 408.360 C 1477.670 408.283, 1470.700 408.524, 1468.500 408.895" stroke="none" fill="#e42082" fill-rule="evenodd"/><path d="M 921.750 167.749 C 934.538 167.907, 955.463 167.907, 968.250 167.749 C 981.038 167.591, 970.575 167.461, 945 167.461 C 919.425 167.461, 908.963 167.591, 921.750 167.749 M 903.296 244.744 C 907.583 244.932, 914.333 244.931, 918.296 244.742 C 922.258 244.552, 918.750 244.399, 910.500 244.400 C 902.250 244.401, 899.008 244.556, 903.296 244.744 M 1255.750 251.737 C 1258.638 251.939, 1263.362 251.939, 1266.250 251.737 C 1269.138 251.535, 1266.775 251.370, 1261 251.370 C 1255.225 251.370, 1252.862 251.535, 1255.750 251.737 M 803.750 347.749 C 818.187 347.905, 841.812 347.905, 856.250 347.749 C 870.688 347.593, 858.875 347.465, 830 347.465 C 801.125 347.465, 789.313 347.593, 803.750 347.749 M 783.750 420.737 C 786.638 420.939, 791.362 420.939, 794.250 420.737 C 797.138 420.535, 794.775 420.370, 789 420.370 C 783.225 420.370, 780.862 420.535, 783.750 420.737 M 863.750 583.746 C 869.388 583.924, 878.612 583.924, 884.250 583.746 C 889.888 583.568, 885.275 583.422, 874 583.422 C 862.725 583.422, 858.112 583.568, 863.750 583.746 M 920.750 587.746 C 926.388 587.924, 935.612 587.924, 941.250 587.746 C 946.888 587.568, 942.275 587.422, 931 587.422 C 919.725 587.422, 915.112 587.568, 920.750 587.746 M 990.750 591.748 C 999.688 591.914, 1014.313 591.914, 1023.250 591.748 C 1032.188 591.582, 1024.875 591.447, 1007 591.447 C 989.125 591.447, 981.813 591.582, 990.750 591.748 M 1061.206 591.741 C 1064.895 591.932, 1071.195 591.934, 1075.206 591.743 C 1079.218 591.553, 1076.200 591.396, 1068.500 591.395 C 1060.800 591.393, 1057.518 591.549, 1061.206 591.741 M 1356.464 704 C 1356.464 731.775, 1356.592 743.138, 1356.749 729.250 C 1356.906 715.363, 1356.906 692.638, 1356.749 678.750 C 1356.592 664.863, 1356.464 676.225, 1356.464 704 M 506.980 730.750 L 497.500 740.500 507.250 731.020 C 516.306 722.215, 517.455 721, 516.730 721 C 516.582 721, 512.194 725.388, 506.980 730.750 M 605.677 765.477 C 588.642 772.021, 579.146 780.803, 558.298 809.294 C 557.087 810.949, 554.873 815.272, 553.378 818.902 C 551.882 822.531, 546.988 831.350, 542.500 838.500 C 538.013 845.650, 531.713 856, 528.500 861.500 C 525.287 867, 521.183 873.975, 519.381 877 C 517.578 880.025, 513.443 885.200, 510.191 888.500 C 504.948 893.820, 503.327 894.807, 495.889 897.206 C 479.536 902.479, 466.715 901.816, 453.235 894.998 C 443.262 889.955, 441.284 887.879, 434.171 875 C 431.641 870.418, 427.528 857.224, 426.020 848.850 C 425.117 843.835, 425.104 841.622, 425.966 839.850 C 427.056 837.613, 427.036 837.593, 425.555 839.441 C 424.700 840.509, 424 842.343, 424 843.517 C 424 844.691, 422.841 846.740, 421.424 848.072 C 417.215 852.026, 398.758 890.739, 393.569 906.500 C 385.922 929.723, 385.187 932.243, 384.086 939 C 383.504 942.575, 382.346 947.961, 381.514 950.968 C 380.681 953.975, 380 957.408, 380 958.596 C 380 959.784, 379.302 962.426, 378.449 964.468 C 377.112 967.667, 376.899 975.608, 376.905 1021.840 C 376.909 1055.282, 377.295 1076.780, 377.928 1078.898 C 378.488 1080.766, 379.442 1085.941, 380.049 1090.398 C 381.530 1101.272, 385.216 1115.544, 387.904 1120.813 C 389.110 1123.175, 392.372 1131.722, 395.154 1139.804 C 401.263 1157.557, 404.528 1164.798, 414.008 1181.620 C 423.960 1199.277, 431.545 1211.468, 436.645 1218 C 439.007 1221.025, 442.943 1226.214, 445.391 1229.532 C 453.065 1239.933, 480.318 1265.718, 492.708 1274.301 C 498.872 1278.571, 506.747 1284.481, 510.208 1287.434 C 518.223 1294.275, 561.767 1320.570, 577.500 1328.072 C 613.455 1345.214, 653.833 1357.024, 700.500 1364.047 C 722.165 1367.307, 725.493 1367.463, 774 1367.482 C 812.690 1367.497, 821.221 1367.234, 831 1365.722 C 864.453 1360.550, 880.951 1357.510, 894.512 1354.017 C 916.555 1348.340, 956.084 1335.243, 968.651 1329.452 C 970.384 1328.653, 972.063 1328, 972.382 1328 C 973.047 1328, 1005.746 1312.367, 1014 1308.102 C 1017.025 1306.539, 1022.425 1303.477, 1026 1301.297 C 1029.575 1299.118, 1035.425 1295.803, 1039 1293.932 C 1046.550 1289.979, 1070.127 1274.539, 1077.700 1268.587 C 1080.560 1266.339, 1086.547 1261.800, 1091.004 1258.500 C 1095.461 1255.200, 1102.667 1249.800, 1107.018 1246.500 C 1111.368 1243.200, 1116.771 1239.155, 1119.025 1237.512 C 1124.251 1233.701, 1183 1174.552, 1183 1173.101 C 1183 1172.504, 1186.575 1167.764, 1190.943 1162.567 C 1195.312 1157.371, 1199.594 1151.855, 1200.458 1150.310 C 1202.813 1146.096, 1208.740 1137.952, 1212.325 1134.002 L 1215.500 1130.504 1212.344 1133.349 C 1209.505 1135.909, 1208.415 1136.212, 1201.471 1136.377 C 1194.278 1136.548, 1193.608 1136.752, 1191.626 1139.375 C 1187.317 1145.077, 1172.749 1158.051, 1163.562 1164.368 C 1161.056 1166.091, 1156.417 1169.265, 1153.253 1171.422 C 1150.089 1173.579, 1145.475 1177.001, 1143 1179.026 C 1140.525 1181.051, 1136.700 1183.846, 1134.500 1185.237 C 1132.300 1186.628, 1129.150 1188.955, 1127.500 1190.408 C 1125.850 1191.860, 1122.025 1194.457, 1119 1196.178 C 1110.225 1201.170, 1107.245 1202.862, 1103.250 1205.117 C 1101.188 1206.281, 1098.375 1208.026, 1097 1208.994 C 1088.775 1214.783, 1057.288 1228.473, 1035 1235.952 C 1007.469 1245.190, 970.802 1252.728, 952.364 1252.941 C 949.540 1252.973, 945.940 1253.672, 944.364 1254.494 C 940.690 1256.410, 927.480 1256.499, 923.901 1254.631 C 922.427 1253.862, 915.965 1252.956, 908.973 1252.539 C 901.554 1252.096, 894.275 1251.046, 890.692 1249.902 C 887.418 1248.856, 884.178 1248, 883.493 1248 C 881.568 1248, 863.930 1242.432, 856.316 1239.421 C 846.003 1235.342, 826.813 1225.581, 819.239 1220.563 C 802.701 1209.603, 781.219 1189.151, 772.690 1176.245 C 766.613 1167.050, 758.748 1151.830, 756.128 1144.194 C 753.283 1135.905, 745.519 1107.205, 743.947 1099.173 C 743.130 1094.993, 742.900 1088.204, 743.272 1079.173 C 743.883 1064.343, 746.299 1053.471, 752.199 1039 C 754.504 1033.345, 755.381 1029.369, 755.762 1022.835 C 756.238 1014.682, 756.086 1013.794, 753.194 1007.835 C 749.445 1000.109, 747.986 998.404, 740.983 993.566 C 733.316 988.270, 726.552 985.464, 716.849 983.553 C 708.771 981.962, 708.309 981.975, 702.631 983.942 C 699.403 985.060, 693.063 988.435, 688.543 991.442 C 679.414 997.517, 679.150 997.906, 671.573 1016.500 C 666.720 1028.411, 665.406 1035.133, 664.442 1053 C 663.790 1065.077, 663.067 1068.628, 659.760 1076 C 653.882 1089.101, 647.503 1096.643, 638.586 1101.032 C 631.074 1104.730, 618.482 1105.986, 607.714 1104.111 C 593.293 1101.599, 576.408 1089.749, 571.030 1078.366 C 567.065 1069.972, 563.997 1059.823, 563.374 1053.037 C 562.772 1046.479, 566.366 1021.375, 569.607 1009.501 C 570.358 1006.750, 572.371 998.875, 574.080 992 C 575.788 985.125, 578.226 977.025, 579.496 974 C 580.766 970.975, 584.266 960.850, 587.272 951.500 C 593.694 931.529, 603.670 905.597, 609.008 895 C 611.086 890.875, 615.319 881.425, 618.414 874 C 621.509 866.575, 625.248 858.250, 626.722 855.500 C 628.197 852.750, 630.903 847.350, 632.737 843.500 C 634.571 839.650, 637.160 834.475, 638.490 832 C 644.849 820.168, 647.050 814.969, 648.362 808.679 C 649.603 802.735, 649.596 800.942, 648.309 794.727 C 646.463 785.808, 641.618 776.437, 636.116 771.143 C 630.034 765.292, 613.952 762.298, 605.677 765.477 M 1352.400 784.500 C 1352.401 792.750, 1352.556 795.992, 1352.744 791.704 C 1352.932 787.417, 1352.931 780.667, 1352.742 776.704 C 1352.552 772.742, 1352.399 776.250, 1352.400 784.500" stroke="none" fill="#6615be" fill-rule="evenodd"/><path d="M 894 172 C 890.871 175.193, 889.356 176, 886.497 176 C 881.508 176, 874.213 182.905, 870.529 191.114 C 867.944 196.876, 867.820 197.837, 868.188 209.348 C 868.532 220.097, 868.880 222.077, 871.202 226.500 C 874.057 231.938, 880.033 238.234, 884 239.983 C 885.375 240.590, 887.625 241.744, 889 242.549 C 891.130 243.796, 899.943 243.975, 948.500 243.756 L 1005.500 243.500 1011.115 240.248 C 1018 236.261, 1024.896 229.043, 1028.664 221.883 C 1031.175 217.112, 1031.493 215.477, 1031.469 207.500 C 1031.445 199.521, 1031.124 197.933, 1028.637 193.500 C 1023.693 184.690, 1016.589 178.417, 1005.355 172.943 L 995.211 168 946.566 168 L 897.921 168 894 172 M 1238.981 256.613 C 1225.376 263.232, 1215.689 272.807, 1208.920 286.328 C 1205.203 293.753, 1204 297.260, 1204 300.673 C 1204 303.678, 1203.288 306.192, 1201.874 308.177 C 1200.045 310.745, 1199.812 312.172, 1200.210 318.367 C 1200.467 322.382, 1201.359 326.661, 1202.224 328.035 C 1203.077 329.391, 1204.063 332.140, 1204.413 334.145 C 1204.764 336.149, 1206.434 339.524, 1208.125 341.645 C 1209.816 343.765, 1212.007 347.075, 1212.994 349 C 1215.171 353.244, 1226.234 364, 1228.423 364 C 1229.287 364, 1231.718 365.557, 1233.825 367.461 C 1236.418 369.804, 1239.083 371.148, 1242.078 371.624 C 1244.510 372.010, 1247.026 373.041, 1247.669 373.913 C 1248.650 375.246, 1251.370 375.500, 1264.669 375.500 L 1280.500 375.500 1290 370.796 C 1297.540 367.063, 1300.985 364.587, 1306.698 358.796 C 1315.809 349.562, 1322.818 336.651, 1323.688 327.500 C 1324.002 324.200, 1324.807 320.825, 1325.477 320 C 1327.785 317.160, 1327.897 315.139, 1325.890 312.587 C 1324.497 310.816, 1323.811 308.229, 1323.627 304.053 C 1323.466 300.380, 1322.760 297.370, 1321.804 296.280 C 1320.946 295.301, 1319.946 292.424, 1319.581 289.886 C 1319.134 286.771, 1318.075 284.497, 1316.323 282.886 C 1314.896 281.574, 1312.879 278.612, 1311.842 276.305 C 1309.821 271.812, 1305.787 268, 1303.052 268 C 1302.129 268, 1300.075 266.644, 1298.487 264.986 C 1296.898 263.328, 1291.077 259.727, 1285.550 256.982 L 1275.500 251.993 1261.981 251.996 L 1248.462 252 1238.981 256.613 M 769.650 351.416 C 761.490 356.097, 754.290 363.419, 750.886 370.500 C 748.381 375.710, 748.001 377.657, 748.001 385.282 C 748 390.923, 748.530 395.215, 749.481 397.282 C 751.927 402.600, 757.997 410.408, 760.837 411.891 C 762.301 412.656, 765.217 414.819, 767.317 416.698 L 771.133 420.115 830.551 419.808 L 889.970 419.500 898.663 410.767 L 907.356 402.033 907.496 396.156 C 907.601 391.776, 908.192 389.571, 909.818 387.504 C 912.482 384.118, 912.564 382.514, 910.161 380.807 C 909.048 380.015, 908.076 377.674, 907.697 374.870 C 906.458 365.699, 899.061 355.332, 891.360 351.972 C 889.083 350.978, 886.919 349.678, 886.551 349.083 C 886.084 348.326, 869.249 348.009, 830.691 348.030 L 775.500 348.061 769.650 351.416 M 546.459 461.071 C 532.181 468.261, 519.575 475.007, 518.444 476.064 C 517.313 477.120, 507.413 482.529, 496.444 488.084 C 485.475 493.638, 475.600 498.978, 474.500 499.951 C 473.400 500.924, 467.100 504.548, 460.500 508.004 C 453.900 511.460, 446.935 515.573, 445.022 517.144 C 443.109 518.715, 440.907 520, 440.127 520 C 439.348 520, 434.009 524.612, 428.263 530.250 C 420.962 537.413, 416.905 542.292, 414.793 546.449 C 411.999 551.949, 411.804 553.007, 412.221 560.449 C 412.608 567.353, 413.284 569.782, 416.970 577.500 C 421.692 587.387, 425.315 592, 428.358 592 C 429.450 592, 431.178 592.756, 432.200 593.681 C 433.221 594.605, 435.956 595.528, 438.278 595.731 C 440.600 595.934, 443 596.753, 443.610 597.550 C 445.014 599.384, 450.391 599.439, 451.888 597.634 C 452.512 596.883, 455.079 595.987, 457.593 595.642 C 460.107 595.298, 463.313 594.112, 464.717 593.008 C 466.121 591.904, 468.031 591, 468.961 591 C 469.890 591, 471.742 589.832, 473.076 588.404 C 474.409 586.977, 480.760 583.211, 487.189 580.036 C 493.618 576.862, 500.593 572.933, 502.689 571.306 C 504.785 569.680, 518.355 562.424, 532.844 555.184 C 547.333 547.943, 560.833 540.747, 562.844 539.192 C 564.855 537.638, 573.158 533.043, 581.296 528.981 C 589.434 524.920, 597.494 520.344, 599.208 518.814 C 600.922 517.284, 603.264 515.746, 604.412 515.398 C 608.107 514.275, 610.032 511.770, 614.681 502.039 C 620.184 490.519, 621.134 485.025, 618.288 481.175 C 617.195 479.697, 615.991 476.424, 615.613 473.903 C 615.105 470.516, 614.022 468.445, 611.463 465.964 C 609.558 464.118, 608 461.661, 608 460.504 C 608 457.821, 606.182 456, 603.503 456 C 602.350 456, 599.648 454.200, 597.500 452 L 593.594 448 583.006 448 L 572.417 448 546.459 461.071 M 270.976 682.755 C 260.936 687.847, 257.253 690.240, 256.014 692.475 C 255.110 694.106, 253.274 695.693, 251.935 696.001 C 250.268 696.385, 249.192 697.600, 248.523 699.851 C 247.800 702.288, 246.833 703.283, 244.796 703.691 C 241.516 704.347, 240.311 705.639, 239.846 709 C 239.570 710.992, 238.849 711.563, 236.298 711.810 C 233.276 712.102, 230.842 715.175, 232.399 716.732 C 232.719 717.052, 230.960 719.474, 228.490 722.114 C 226.021 724.754, 223.990 727.496, 223.978 728.207 C 223.966 728.918, 223.076 730.625, 222 732 C 220.924 733.375, 220.024 735.175, 220 736 C 219.976 736.825, 219.076 738.625, 218 740 C 215.199 743.581, 215.199 755.271, 218 759.500 C 219.093 761.150, 219.990 763.632, 219.993 765.015 C 219.997 766.398, 220.900 769.209, 222 771.261 C 223.100 773.314, 224 775.623, 224 776.393 C 224 778.016, 230.486 783.989, 232.285 784.022 C 232.953 784.034, 234.625 784.924, 236 786 C 237.375 787.076, 239.081 787.966, 239.790 787.978 C 240.500 787.990, 242.366 788.950, 243.937 790.111 C 246.532 792.030, 247.836 792.189, 258.251 791.859 L 269.710 791.495 273.744 787.850 C 275.963 785.845, 278.841 783.885, 280.139 783.494 C 281.438 783.103, 284.075 781.311, 286 779.512 C 287.925 777.714, 290.838 775.817, 292.472 775.297 C 294.382 774.690, 295.649 773.485, 296.015 771.926 C 296.340 770.541, 297.853 768.915, 299.542 768.137 C 301.169 767.388, 308.715 760.638, 316.310 753.137 C 330.567 739.059, 334.439 733.495, 335.693 725.281 C 336.011 723.202, 336.954 720.712, 337.790 719.750 C 339.154 718.180, 339.140 717.812, 337.655 716.171 C 336.745 715.165, 336 713.122, 336 711.630 C 336 710.137, 334.681 706.123, 333.070 702.708 C 329.480 695.104, 317.080 682.640, 309.158 678.674 C 304.460 676.323, 302.637 676, 294.055 676 L 284.295 676 270.976 682.755" stroke="none" fill="#73f0ff" fill-rule="evenodd"/></svg>